<svg width="18" height="25" fill="none" xmlns="http://www.w3.org/2000/svg"><g clip-path="url(#Figma__a)" fill="#1B2559"><path opacity=".5" d="M4.911 25c2.379 0 4.31-1.867 4.31-4.167v-4.166H4.91c-2.379 0-4.31 1.866-4.31 4.166C.6 23.133 2.531 25 4.91 25Z"/><path d="M.602 12.5c0-2.3 1.93-4.167 4.309-4.167h4.31v8.334H4.91C2.531 16.667.6 14.8.6 12.5Z" fill-opacity=".76"/><path d="M.604 4.167C.604 1.867 2.534 0 4.913 0h4.31v8.333h-4.31c-2.379 0-4.31-1.866-4.31-4.166Z"/><path d="M9.22 0h4.31c2.379 0 4.31 1.867 4.31 4.167s-1.931 4.166-4.31 4.166H9.22V0Z" fill-opacity=".88"/><path opacity=".5" d="M17.84 12.5c0 2.3-1.931 4.167-4.31 4.167-2.379 0-4.31-1.867-4.31-4.167s1.931-4.167 4.31-4.167c2.379 0 4.31 1.867 4.31 4.167Z"/></g><defs><clipPath id="Figma__a"><path fill="#fff" transform="translate(.6)" d="M0 0h17.241v25H0z"/></clipPath></defs></svg>