<svg width="138" height="25" fill="none" xmlns="http://www.w3.org/2000/svg"><path d="M126.079 6.396v7.45c0 1.5-.986 2.5-2.465 2.5-1.478 0-2.464-1-2.464-2.5v-7.45h-2.546v7.45c0 2.694 2.004 4.759 5.01 4.759 3.007 0 5.011-2.065 5.011-4.758V6.396h-2.546Zm4.525 12.015h2.546V6.396h-2.546V18.41Z" fill="#1B2559"/><path fill-rule="evenodd" clip-rule="evenodd" d="M132.113 2.25h-12.756c-2.032 0-3.68 1.679-3.68 3.75v13c0 2.071 1.648 3.75 3.68 3.75h12.756c2.032 0 3.679-1.679 3.679-3.75V6c0-2.071-1.647-3.75-3.679-3.75ZM119.357 0c-3.251 0-5.887 2.686-5.887 6v13c0 3.314 2.636 6 5.887 6h12.756c3.251 0 5.887-2.686 5.887-6V6c0-3.314-2.636-6-5.887-6h-12.756Z" fill="#1B2559"/><path d="M25.265 18.525h8.446v3.743h-8.446v-3.743Z" fill="#1B2559"/><path d="M34.004 19.312a4.707 4.707 0 0 0-1.323-3.282 4.456 4.456 0 0 0-3.193-1.36 4.457 4.457 0 0 0-3.194 1.36 4.706 4.706 0 0 0-1.323 3.282h9.033Z" fill="#1B2559"/><path fill-rule="evenodd" clip-rule="evenodd" d="M29.506 20.471c2.586 0 4.682-2.136 4.682-4.771 0-2.636-2.096-4.772-4.682-4.772-2.585 0-4.681 2.136-4.681 4.772 0 2.635 2.096 4.771 4.681 4.771Zm0 3.743c4.614 0 8.355-3.812 8.355-8.514s-3.74-8.514-8.354-8.514c-4.614 0-8.355 3.812-8.355 8.514s3.74 8.514 8.354 8.514Zm53.32-3.742c2.586 0 4.682-2.137 4.682-4.772 0-2.636-2.096-4.772-4.682-4.772-2.586 0-4.682 2.136-4.682 4.772 0 2.635 2.096 4.771 4.682 4.771Zm0 3.742c4.614 0 8.355-3.812 8.355-8.514s-3.74-8.514-8.355-8.514c-4.613 0-8.354 3.812-8.354 8.514s3.74 8.514 8.354 8.514Z" fill="#1B2559"/><path d="M0 24.212h3.881v-9.419H14.11v9.419h3.912V.823H14.11V11.31H3.88V.823H0v23.389Zm48.974-17.11c-2.033 0-3.634.69-4.497 2.543V7.29h-3.48v16.922h3.696v-9.575c0-2.638 1.54-4.145 3.82-4.145h2.002v-3.39h-1.54Zm3.721-2.04h3.697V.822h-3.697V5.06Zm0 19.15h3.697V7.29h-3.697v16.922Zm5.839 0H72.15V20.82h-8.626l8.595-10.454V7.29H58.935v3.39h8.317l-8.718 10.455v3.076Zm43.211-17.298c-2.064 0-3.789.847-4.713 2.417V7.29H93.55v16.92h3.696V14.167c0-2.292 1.418-3.768 3.543-3.768 2.095 0 3.512 1.476 3.512 3.768v10.046h3.696V13.224c0-3.705-2.557-6.31-6.253-6.31Z" fill="#1B2559"/></svg>