<svg width="26" height="24" fill="none" xmlns="http://www.w3.org/2000/svg"><g clip-path="url(#React__a)"><path d="M12.8 14.123a2.143 2.143 0 1 0 0-4.286 2.143 2.143 0 0 0 0 4.286Z" fill="#1B2559"/><path clip-rule="evenodd" d="M12.8 7.623c2.878 0 5.55.413 7.566 1.106 2.429.836 3.922 2.104 3.922 3.251 0 1.196-1.583 2.542-4.19 3.406-1.972.653-4.566.994-7.298.994-2.8 0-5.452-.32-7.446-1.001-2.522-.862-4.042-2.226-4.042-3.399 0-1.138 1.426-2.396 3.82-3.23 2.023-.706 4.762-1.127 7.668-1.127Z" stroke="#1B2559" stroke-width="1.6"/><path clip-rule="evenodd" d="M9.006 9.814c1.438-2.493 3.13-4.602 4.739-6.001 1.937-1.686 3.78-2.347 4.775-1.773 1.036.597 1.411 2.64.857 5.33-.419 2.035-1.42 4.453-2.784 6.819-1.4 2.426-3.001 4.563-4.587 5.95-2.007 1.754-3.948 2.389-4.964 1.803-.986-.568-1.363-2.432-.89-4.923.4-2.105 1.403-4.688 2.854-7.205Z" stroke="#1B2559" stroke-width="1.6"/><path clip-rule="evenodd" d="M9.01 14.195c-1.44-2.49-2.422-5.01-2.832-7.102-.493-2.52-.145-4.448.849-5.023 1.034-.599 2.992.096 5.046 1.92 1.554 1.38 3.148 3.454 4.517 5.818 1.403 2.423 2.455 4.879 2.864 6.945.517 2.615.098 4.613-.917 5.2-.985.571-2.787-.033-4.71-1.687-1.623-1.397-3.36-3.556-4.816-6.07Z" stroke="#1B2559" stroke-width="1.6"/></g><defs><clipPath id="React__a"><path fill="#fff" d="M0 0h25.6v24H0z"/></clipPath></defs></svg>