<?xml version="1.0" standalone="no"?>
<!DOCTYPE svg PUBLIC "-//W3C//DTD SVG 20010904//EN"
 "http://www.w3.org/TR/2001/REC-SVG-20010904/DTD/svg10.dtd">
<svg version="1.0" xmlns="http://www.w3.org/2000/svg"
 width="680.000000pt" height="200.000000pt" viewBox="0 0 680.000000 200.000000"
 preserveAspectRatio="xMidYMid meet">

<g transform="translate(0.000000,200.000000) scale(0.100000,-0.100000)"
fill="#000000" stroke="none">
<path d="M1804 1756 c-17 -7 -183 -101 -370 -208 -186 -106 -374 -211 -417
-233 -43 -22 -93 -52 -113 -68 -64 -53 -94 -142 -74 -217 8 -30 188 -364 236
-438 1 -2 20 8 43 22 22 14 43 26 45 26 3 0 55 -89 117 -198 62 -108 129 -213
149 -232 66 -64 154 -76 241 -32 59 29 93 71 110 135 20 73 5 112 -130 351
-85 149 -131 241 -135 269 -9 62 16 137 62 181 20 20 134 92 252 160 254 145
272 163 278 274 4 83 -23 142 -87 187 -35 24 -53 30 -109 32 -42 2 -79 -2 -98
-11z"/>
<path d="M4780 1300 l0 -160 -39 25 c-46 31 -127 42 -187 26 -22 -6 -60 -27
-83 -48 -122 -104 -123 -307 -3 -415 73 -66 194 -76 273 -24 21 14 40 26 43
26 2 0 7 -11 10 -25 5 -21 12 -25 46 -25 l40 0 0 390 0 390 -50 0 -50 0 0
-160z m-69 -213 c47 -31 69 -79 69 -152 0 -107 -57 -175 -148 -175 -95 0 -158
80 -150 191 9 127 132 201 229 136z"/>
<path d="M1765 1176 c-95 -45 -146 -129 -146 -240 0 -112 47 -188 147 -237 58
-29 71 -31 131 -27 66 5 162 42 178 69 4 6 -5 23 -20 39 l-27 28 -41 -24 c-51
-29 -123 -32 -174 -7 -32 15 -93 84 -93 105 0 4 86 8 191 8 l192 0 -6 60 c-21
197 -174 301 -332 226z m156 -81 c32 -17 69 -69 69 -97 0 -16 -13 -18 -135
-18 -74 0 -135 2 -135 5 0 3 9 23 20 44 36 71 115 100 181 66z"/>
<path d="M2405 1186 c-17 -7 -36 -20 -44 -29 -18 -23 -26 -21 -39 9 -10 21
-18 25 -47 22 l-36 -3 0 -250 0 -250 44 -3 44 -3 6 173 c5 146 9 176 25 198
29 39 80 62 129 57 42 -4 43 -4 53 34 6 22 8 44 5 49 -9 14 -105 12 -140 -4z"/>
<path d="M3375 1176 c-172 -80 -207 -312 -65 -439 52 -47 103 -67 171 -67 53
0 133 36 171 77 l28 29 -34 33 -34 33 -15 -23 c-66 -93 -204 -74 -257 36 -78
161 97 326 235 221 l35 -27 30 22 c16 13 30 26 30 29 0 14 -58 60 -100 79 -61
28 -132 27 -195 -3z"/>
<path d="M5149 1172 c-93 -48 -146 -152 -136 -263 12 -133 110 -227 247 -236
71 -5 152 18 199 58 l25 20 -31 31 -31 30 -31 -22 c-37 -28 -127 -38 -171 -20
-34 14 -100 83 -100 105 0 13 28 15 186 15 l187 0 -5 68 c-14 194 -178 298
-339 214z m176 -82 c27 -17 65 -79 65 -105 0 -3 -61 -5 -135 -5 -148 0 -150 1
-115 58 42 68 123 91 185 52z"/>
<path d="M5745 1176 c-95 -45 -146 -129 -146 -240 0 -112 47 -188 147 -237 58
-29 71 -31 131 -27 66 5 162 42 178 69 4 6 -5 23 -20 39 l-27 28 -41 -24 c-51
-29 -123 -32 -174 -7 -32 15 -93 84 -93 105 0 4 86 8 191 8 l192 0 -6 60 c-21
197 -174 301 -332 226z m156 -81 c32 -17 69 -69 69 -97 0 -16 -13 -18 -135
-18 -74 0 -135 2 -135 5 0 3 9 23 20 44 36 71 115 100 181 66z"/>
<path d="M2764 1176 c-50 -22 -106 -78 -130 -131 -57 -121 -9 -266 108 -330
44 -25 64 -30 123 -30 59 0 79 5 123 29 86 48 132 128 132 230 0 94 -68 195
-156 232 -42 18 -159 17 -200 0z m188 -94 c51 -34 72 -71 76 -136 3 -51 0 -66
-20 -95 -40 -59 -72 -76 -143 -76 -49 0 -70 5 -91 21 -46 34 -67 70 -72 123
-6 64 9 101 59 146 36 32 44 35 102 35 42 0 70 -6 89 -18z"/>
<path d="M3925 1171 c-50 -23 -109 -84 -130 -133 -8 -21 -15 -66 -15 -101 0
-117 69 -211 179 -243 196 -58 375 120 318 317 -33 111 -127 179 -246 179 -43
0 -80 -7 -106 -19z m195 -93 c52 -36 73 -71 77 -130 11 -160 -180 -238 -291
-119 -24 25 -30 42 -34 91 -6 76 10 114 61 151 53 38 136 41 187 7z"/>
</g>
</svg>
